<?xml version="1.0" standalone="no"?>
<!DOCTYPE svg PUBLIC "-//W3C//DTD SVG 20010904//EN"
 "http://www.w3.org/TR/2001/REC-SVG-20010904/DTD/svg10.dtd">
<svg version="1.0" xmlns="http://www.w3.org/2000/svg"
 width="142.000000pt" height="140.000000pt" viewBox="0 0 142.000000 140.000000"
 preserveAspectRatio="xMidYMid meet">

<g transform="translate(0.000000,140.000000) scale(0.100000,-0.100000)"
fill="#696969" stroke="none">
<path d="M426 1354 c-145 -35 -266 -136 -337 -280 l-44 -87 0 -137 0 -137 42
-84 c86 -174 240 -280 429 -296 83 -7 194 15 264 52 l45 23 185 -183 c152
-151 191 -185 221 -190 80 -15 149 48 149 134 0 45 -1 45 -186 232 l-186 187
27 68 c37 91 46 240 20 330 -27 96 -72 169 -146 238 -134 127 -305 173 -483
130z m286 -177 c213 -104 269 -391 112 -566 -144 -161 -393 -161 -538 -1 -64
71 -90 141 -91 240 0 73 4 94 29 148 36 78 123 161 198 191 79 31 213 26 290
-12z"/>
</g>
</svg>
